# xmcd
#
# Track frame offsets:
#	150
#	5113
#	21804
#	39136
#	52440
#	71970
#	85978
#	101883
#	142579
#	156716
#
# Disc length: 2208 seconds
#
# Revision: 1
# Processed by: cddbd v1.5.2PL0 Copyright (c) Steve Scherf et al.
# Submitted via: audiograbber 1.83.01
#
DISCID=8d089e0a
DTITLE=Rick L. Blues and The Swinging Fools - Eleven past Eleven
DYEAR=1998
DGENRE=Blues
TTITLE0=Are you ready?
TTITLE1=3-D Lover
TTITLE2=Groovy baby swing
TTITLE3=Hole in my life
TTITLE4=Special treat for Christmas
TTITLE5=Lady Doctor
TTITLE6=Salvation Blues
TTITLE7=Blues to blow
TTITLE8=She's dynamite
TTITLE9=Eleven past eleven
EXTD=First Album
EXTT0=Francis D.
EXTT1=Francis D.
EXTT2=Rick L.
EXTT3=Francis D.
EXTT4=Rick L.
EXTT5=Francis D.
EXTT6=Francis D.
EXTT7=Rick L.
EXTT8=Francis D.
EXTT9=Rick L.
PLAYORDER=
